<mxfile host="app.diagrams.net" modified="2024-04-17T11:33:24.246Z" agent="Mozilla/5.0 (Windows NT 10.0; Win64; x64) AppleWebKit/537.36 (KHTML, like Gecko) Chrome/123.0.0.0 Safari/537.36" version="22.1.16" etag="4mYUm-PcWNEeyNiE2FaN" type="github">
  <diagram name="第 1 页" id="hN98OUy8Th3DWRD7OJz8">
    <mxGraphModel>
      <root>
        <mxCell id="0" />
        <mxCell id="1" parent="0" />
      </root>
    </mxGraphModel>
  </diagram>
</mxfile>
